%TF.GenerationSoftware,KiCad,Pcbnew,8.0.6*%
%TF.CreationDate,2025-01-23T15:09:17-05:00*%
%TF.ProjectId,MagneticActuationBoard,4d61676e-6574-4696-9341-637475617469,rev?*%
%TF.SameCoordinates,Original*%
%TF.FileFunction,Drillmap*%
%TF.FilePolarity,Positive*%
%FSLAX45Y45*%
G04 Gerber Fmt 4.5, Leading zero omitted, Abs format (unit mm)*
G04 Created by KiCad (PCBNEW 8.0.6) date 2025-01-23 15:09:17*
%MOMM*%
%LPD*%
G01*
G04 APERTURE LIST*
%ADD10C,0.100000*%
%ADD11C,0.050000*%
%ADD12C,0.200000*%
G04 APERTURE END LIST*
D10*
X13750000Y-5900000D02*
G75*
G02*
X13250000Y-5900000I-250000J0D01*
G01*
X13250000Y-5900000D02*
G75*
G02*
X13750000Y-5900000I250000J0D01*
G01*
X22950000Y-5900000D02*
G75*
G02*
X22450000Y-5900000I-250000J0D01*
G01*
X22450000Y-5900000D02*
G75*
G02*
X22950000Y-5900000I250000J0D01*
G01*
X13750000Y-15100000D02*
G75*
G02*
X13250000Y-15100000I-250000J0D01*
G01*
X13250000Y-15100000D02*
G75*
G02*
X13750000Y-15100000I250000J0D01*
G01*
X22950000Y-15100000D02*
G75*
G02*
X22450000Y-15100000I-250000J0D01*
G01*
X22450000Y-15100000D02*
G75*
G02*
X22950000Y-15100000I250000J0D01*
G01*
D11*
X13100000Y-5500000D02*
X23100000Y-5500000D01*
X23100000Y-15500000D01*
X13100000Y-15500000D01*
X13100000Y-5500000D01*
D12*
X13358277Y-15813984D02*
X13358277Y-15613984D01*
X13358277Y-15613984D02*
X13405896Y-15613984D01*
X13405896Y-15613984D02*
X13434467Y-15623508D01*
X13434467Y-15623508D02*
X13453515Y-15642555D01*
X13453515Y-15642555D02*
X13463039Y-15661603D01*
X13463039Y-15661603D02*
X13472562Y-15699698D01*
X13472562Y-15699698D02*
X13472562Y-15728269D01*
X13472562Y-15728269D02*
X13463039Y-15766365D01*
X13463039Y-15766365D02*
X13453515Y-15785412D01*
X13453515Y-15785412D02*
X13434467Y-15804460D01*
X13434467Y-15804460D02*
X13405896Y-15813984D01*
X13405896Y-15813984D02*
X13358277Y-15813984D01*
X13558277Y-15813984D02*
X13558277Y-15680650D01*
X13558277Y-15718746D02*
X13567801Y-15699698D01*
X13567801Y-15699698D02*
X13577324Y-15690174D01*
X13577324Y-15690174D02*
X13596372Y-15680650D01*
X13596372Y-15680650D02*
X13615420Y-15680650D01*
X13682086Y-15813984D02*
X13682086Y-15680650D01*
X13682086Y-15613984D02*
X13672562Y-15623508D01*
X13672562Y-15623508D02*
X13682086Y-15633031D01*
X13682086Y-15633031D02*
X13691610Y-15623508D01*
X13691610Y-15623508D02*
X13682086Y-15613984D01*
X13682086Y-15613984D02*
X13682086Y-15633031D01*
X13805896Y-15813984D02*
X13786848Y-15804460D01*
X13786848Y-15804460D02*
X13777324Y-15785412D01*
X13777324Y-15785412D02*
X13777324Y-15613984D01*
X13910658Y-15813984D02*
X13891610Y-15804460D01*
X13891610Y-15804460D02*
X13882086Y-15785412D01*
X13882086Y-15785412D02*
X13882086Y-15613984D01*
X14139229Y-15813984D02*
X14139229Y-15613984D01*
X14139229Y-15613984D02*
X14205896Y-15756841D01*
X14205896Y-15756841D02*
X14272562Y-15613984D01*
X14272562Y-15613984D02*
X14272562Y-15813984D01*
X14453515Y-15813984D02*
X14453515Y-15709222D01*
X14453515Y-15709222D02*
X14443991Y-15690174D01*
X14443991Y-15690174D02*
X14424943Y-15680650D01*
X14424943Y-15680650D02*
X14386848Y-15680650D01*
X14386848Y-15680650D02*
X14367801Y-15690174D01*
X14453515Y-15804460D02*
X14434467Y-15813984D01*
X14434467Y-15813984D02*
X14386848Y-15813984D01*
X14386848Y-15813984D02*
X14367801Y-15804460D01*
X14367801Y-15804460D02*
X14358277Y-15785412D01*
X14358277Y-15785412D02*
X14358277Y-15766365D01*
X14358277Y-15766365D02*
X14367801Y-15747317D01*
X14367801Y-15747317D02*
X14386848Y-15737793D01*
X14386848Y-15737793D02*
X14434467Y-15737793D01*
X14434467Y-15737793D02*
X14453515Y-15728269D01*
X14548753Y-15680650D02*
X14548753Y-15880650D01*
X14548753Y-15690174D02*
X14567801Y-15680650D01*
X14567801Y-15680650D02*
X14605896Y-15680650D01*
X14605896Y-15680650D02*
X14624943Y-15690174D01*
X14624943Y-15690174D02*
X14634467Y-15699698D01*
X14634467Y-15699698D02*
X14643991Y-15718746D01*
X14643991Y-15718746D02*
X14643991Y-15775888D01*
X14643991Y-15775888D02*
X14634467Y-15794936D01*
X14634467Y-15794936D02*
X14624943Y-15804460D01*
X14624943Y-15804460D02*
X14605896Y-15813984D01*
X14605896Y-15813984D02*
X14567801Y-15813984D01*
X14567801Y-15813984D02*
X14548753Y-15804460D01*
X14729705Y-15794936D02*
X14739229Y-15804460D01*
X14739229Y-15804460D02*
X14729705Y-15813984D01*
X14729705Y-15813984D02*
X14720182Y-15804460D01*
X14720182Y-15804460D02*
X14729705Y-15794936D01*
X14729705Y-15794936D02*
X14729705Y-15813984D01*
X14729705Y-15690174D02*
X14739229Y-15699698D01*
X14739229Y-15699698D02*
X14729705Y-15709222D01*
X14729705Y-15709222D02*
X14720182Y-15699698D01*
X14720182Y-15699698D02*
X14729705Y-15690174D01*
X14729705Y-15690174D02*
X14729705Y-15709222D01*
M02*
