%TF.GenerationSoftware,KiCad,Pcbnew,8.0.6*%
%TF.CreationDate,2025-01-23T15:05:53-05:00*%
%TF.ProjectId,MagneticActuationBoard,4d61676e-6574-4696-9341-637475617469,rev?*%
%TF.SameCoordinates,Original*%
%TF.FileFunction,Soldermask,Top*%
%TF.FilePolarity,Negative*%
%FSLAX46Y46*%
G04 Gerber Fmt 4.6, Leading zero omitted, Abs format (unit mm)*
G04 Created by KiCad (PCBNEW 8.0.6) date 2025-01-23 15:05:53*
%MOMM*%
%LPD*%
G01*
G04 APERTURE LIST*
%ADD10R,1.700000X1.700000*%
%ADD11O,1.700000X1.700000*%
G04 APERTURE END LIST*
D10*
%TO.C,J0*%
X136000000Y-85900000D03*
D11*
X138540000Y-85900000D03*
X136000000Y-88440000D03*
X138540000Y-88440000D03*
X136000000Y-90980000D03*
X138540000Y-90980000D03*
X136000000Y-93520000D03*
X138540000Y-93520000D03*
X136000000Y-96060000D03*
X138540000Y-96060000D03*
X136000000Y-98600000D03*
X138540000Y-98600000D03*
X136000000Y-101140000D03*
X138540000Y-101140000D03*
X136000000Y-103680000D03*
X138540000Y-103680000D03*
X136000000Y-106220000D03*
X138540000Y-106220000D03*
X136000000Y-108760000D03*
X138540000Y-108760000D03*
X136000000Y-111300000D03*
X138540000Y-111300000D03*
X136000000Y-113840000D03*
X138540000Y-113840000D03*
X136000000Y-116380000D03*
X138540000Y-116380000D03*
X136000000Y-118920000D03*
X138540000Y-118920000D03*
X136000000Y-121460000D03*
X138540000Y-121460000D03*
X136000000Y-124000000D03*
X138540000Y-124000000D03*
%TD*%
D10*
%TO.C,J16*%
X215460000Y-148000000D03*
D11*
X218000000Y-148000000D03*
%TD*%
D10*
%TO.C,J15*%
X195460000Y-148000000D03*
D11*
X198000000Y-148000000D03*
%TD*%
D10*
%TO.C,J14*%
X176000000Y-148000000D03*
D11*
X178540000Y-148000000D03*
%TD*%
D10*
%TO.C,J13*%
X155766668Y-148000000D03*
D11*
X158306668Y-148000000D03*
%TD*%
%TO.C,J12*%
X228000000Y-125000000D03*
D10*
X225460000Y-125000000D03*
%TD*%
%TO.C,J11*%
X205460000Y-125000000D03*
D11*
X208000000Y-125000000D03*
%TD*%
%TO.C,J10*%
X169000000Y-125000000D03*
D10*
X166460000Y-125000000D03*
%TD*%
%TO.C,J9*%
X146460000Y-125000000D03*
D11*
X149000000Y-125000000D03*
%TD*%
%TO.C,J8*%
X228000000Y-86000000D03*
D10*
X225460000Y-86000000D03*
%TD*%
%TO.C,J7*%
X205460000Y-86000000D03*
D11*
X208000000Y-86000000D03*
%TD*%
D10*
%TO.C,J6*%
X166460000Y-86000000D03*
D11*
X169000000Y-86000000D03*
%TD*%
D10*
%TO.C,J5*%
X145460000Y-86000000D03*
D11*
X148000000Y-86000000D03*
%TD*%
D10*
%TO.C,J4*%
X215460000Y-63000000D03*
D11*
X218000000Y-63000000D03*
%TD*%
D10*
%TO.C,J3*%
X195460000Y-63000000D03*
D11*
X198000000Y-63000000D03*
%TD*%
D10*
%TO.C,J2*%
X176000000Y-63000000D03*
D11*
X178540000Y-63000000D03*
%TD*%
%TO.C,J1*%
X158540000Y-63000000D03*
D10*
X156000000Y-63000000D03*
%TD*%
M02*
