M48
; DRILL file {KiCad 8.0.6} date 2025-01-23T15:05:57-0500
; FORMAT={-:-/ absolute / inch / decimal}
; #@! TF.CreationDate,2025-01-23T15:05:57-05:00
; #@! TF.GenerationSoftware,Kicad,Pcbnew,8.0.6
; #@! TF.FileFunction,Plated,1,2,PTH
FMAT,2
INCH
; #@! TA.AperFunction,Plated,PTH,ComponentDrill
T1C0.0394
%
G90
G05
T1
X5.3543Y-3.3819
X5.3543Y-3.4819
X5.3543Y-3.5819
X5.3543Y-3.6819
X5.3543Y-3.7819
X5.3543Y-3.8819
X5.3543Y-3.9819
X5.3543Y-4.0819
X5.3543Y-4.1819
X5.3543Y-4.2819
X5.3543Y-4.3819
X5.3543Y-4.4819
X5.3543Y-4.5819
X5.3543Y-4.6819
X5.3543Y-4.7819
X5.3543Y-4.8819
X5.4543Y-3.3819
X5.4543Y-3.4819
X5.4543Y-3.5819
X5.4543Y-3.6819
X5.4543Y-3.7819
X5.4543Y-3.8819
X5.4543Y-3.9819
X5.4543Y-4.0819
X5.4543Y-4.1819
X5.4543Y-4.2819
X5.4543Y-4.3819
X5.4543Y-4.4819
X5.4543Y-4.5819
X5.4543Y-4.6819
X5.4543Y-4.7819
X5.4543Y-4.8819
X5.7268Y-3.3858
X5.7661Y-4.9213
X5.8268Y-3.3858
X5.8661Y-4.9213
X6.1325Y-5.8268
X6.1417Y-2.4803
X6.2325Y-5.8268
X6.2417Y-2.4803
X6.5535Y-3.3858
X6.5535Y-4.9213
X6.6535Y-3.3858
X6.6535Y-4.9213
X6.9291Y-2.4803
X6.9291Y-5.8268
X7.0291Y-2.4803
X7.0291Y-5.8268
X7.6953Y-2.4803
X7.6953Y-5.8268
X7.7953Y-2.4803
X7.7953Y-5.8268
X8.089Y-3.3858
X8.089Y-4.9213
X8.189Y-3.3858
X8.189Y-4.9213
X8.4827Y-2.4803
X8.4827Y-5.8268
X8.5827Y-2.4803
X8.5827Y-5.8268
X8.8764Y-3.3858
X8.8764Y-4.9213
X8.9764Y-3.3858
X8.9764Y-4.9213
M30
